<svg width="19" height="26" viewBox="0 0 19 26" fill="none" xmlns="http://www.w3.org/2000/svg">
<path fill-rule="evenodd" clip-rule="evenodd" d="M0.322266 9.37974C0.322266 4.48671 4.27968 0.529297 9.17271 0.529297C14.0657 0.529297 18.0232 4.48671 18.0232 9.37974C18.0232 14.6521 12.4347 21.9221 10.1463 24.691C9.64052 25.2979 8.71754 25.2979 8.2118 24.691C5.91069 21.9221 0.322266 14.6521 0.322266 9.37974ZM6.01161 9.37951C6.01161 11.1243 7.42768 12.5404 9.17248 12.5404C10.9173 12.5404 12.3334 11.1243 12.3334 9.37951C12.3334 7.63471 10.9173 6.21864 9.17248 6.21864C7.42768 6.21864 6.01161 7.63471 6.01161 9.37951Z" fill="#FE2B28"/>
</svg>
