<svg width="24" height="19" viewBox="0 0 24 19" fill="none" xmlns="http://www.w3.org/2000/svg">
<path d="M14.0057 12.3808C13.4086 12.7789 12.7151 12.9893 12 12.9893C11.285 12.9893 10.5914 12.7789 9.99431 12.3808L0.159797 5.82428C0.105234 5.78791 0.0520781 5.74998 0 5.71098V16.4546C0 17.6864 0.999609 18.664 2.20936 18.664H21.7906C23.0224 18.664 24 17.6643 24 16.4546V5.71094C23.9478 5.75003 23.8945 5.78805 23.8398 5.82447L14.0057 12.3808Z" fill="#FE2B28"/>
<path d="M0.939844 4.65373L10.7744 11.2103C11.1466 11.4585 11.5733 11.5826 12 11.5826C12.4267 11.5826 12.8534 11.4585 13.2256 11.2103L23.0602 4.65373C23.6487 4.26162 24 3.60537 24 2.89709C24 1.67923 23.0092 0.688477 21.7914 0.688477H2.20861C0.990797 0.688523 0 1.67927 0 2.89826C0 3.60537 0.351375 4.26162 0.939844 4.65373Z" fill="#FE2B28"/>
</svg>
