<svg width="24" height="23" viewBox="0 0 24 23" fill="none" xmlns="http://www.w3.org/2000/svg">
<path fill-rule="evenodd" clip-rule="evenodd" d="M21.3133 15.6367L18.1018 15.2701C17.3306 15.1815 16.572 15.4471 16.0283 15.9907L13.7019 18.3171C10.1238 16.4965 7.19049 13.5758 5.36983 9.98507L7.70888 7.64603C8.25255 7.10236 8.51806 6.34375 8.42955 5.57249L8.06289 2.38634C7.91117 1.10934 6.83647 0.148438 5.54684 0.148438H3.35951C1.9308 0.148438 0.742312 1.33693 0.830816 2.76564C1.50092 13.5632 10.1364 22.186 20.9213 22.8561C22.35 22.9446 23.5385 21.7562 23.5385 20.3274V18.1401C23.5512 16.8631 22.5903 15.7884 21.3133 15.6367Z" fill="#FE2B28"/>
</svg>
